<svg width="24" height="24" viewBox="0 0 24 24" fill="none" xmlns="http://www.w3.org/2000/svg">
<path d="M4.00044 10C4.00044 8.94942 4.20737 7.90914 4.60941 6.93853C5.01145 5.96793 5.60072 5.08601 6.34359 4.34314C7.08646 3.60028 7.96837 3.011 8.93898 2.60896C9.90958 2.20693 10.9499 2 12.0004 2C13.051 2 14.0913 2.20693 15.0619 2.60896C16.0325 3.011 16.9144 3.60028 17.6573 4.34315C18.4002 5.08602 18.9894 5.96793 19.3915 6.93853C19.7935 7.90914 20.0004 8.94943 20.0004 10V14L21.2768 16.5528C21.6093 17.2177 21.1258 18 20.3824 18H3.61848C2.8751 18 2.3916 17.2177 2.72405 16.5528L4.00044 14V10Z" fill="#343841"/>
<path d="M15.5004 20C15.5004 20.4596 15.4099 20.9148 15.234 21.3394C15.0581 21.764 14.8003 22.1499 14.4753 22.4749C14.1503 22.7999 13.7645 23.0577 13.3398 23.2336C12.9152 23.4095 12.4601 23.5 12.0004 23.5C11.5408 23.5 11.0857 23.4095 10.6611 23.2336C10.2364 23.0577 9.85057 22.7999 9.52557 22.4749C9.20056 22.1499 8.94276 21.764 8.76687 21.3394C8.59097 20.9148 8.50044 20.4596 8.50044 20H15.5004Z" fill="#343841"/>
</svg>
