<svg width="25" height="24" viewBox="0 0 25 24" fill="none" xmlns="http://www.w3.org/2000/svg">
<rect x="0.5" width="24" height="24" rx="12" fill="#3250D2"/>
<path d="M9.92149 20.25H10.1715V20V14.295H12.4215C14.106 14.295 15.5628 13.9255 16.6038 13.1169C17.6548 12.3006 18.25 11.0615 18.25 9.39973C18.25 7.69635 17.6484 6.51219 16.5721 5.76653C15.5134 5.03302 14.0317 4.75 12.3182 4.75H8H7.75V5V20V20.25H8H9.92149ZM15.8492 9.39973C15.8492 10.4233 15.5515 11.1165 14.9814 11.5641C14.3983 12.022 13.4847 12.2602 12.1736 12.2602H10.1715V6.78479H12.0909C13.4129 6.78479 14.3512 6.96483 14.9555 7.36926C15.536 7.75776 15.8492 8.38294 15.8492 9.39973Z" fill="white" stroke="white" stroke-width="0.5"/>
</svg>
