<svg width="24" height="24" viewBox="0 0 24 24" fill="none" xmlns="http://www.w3.org/2000/svg">
<rect width="24" height="24" fill="white" fill-opacity="0.01"/>
<g filter="url(#filter0_i_645_22993)">
<path d="M0 8C0 4.22876 0 2.34315 1.17157 1.17157C2.34315 0 4.22876 0 8 0H16C19.7712 0 21.6569 0 22.8284 1.17157C24 2.34315 24 4.22876 24 8V16C24 19.7712 24 21.6569 22.8284 22.8284C21.6569 24 19.7712 24 16 24H8C4.22876 24 2.34315 24 1.17157 22.8284C0 21.6569 0 19.7712 0 16V8Z" fill="white" fill-opacity="0.9"/>
<path d="M0.5 8C0.5 6.10025 0.501062 4.72573 0.641988 3.67754C0.78098 2.64373 1.04772 2.00253 1.52513 1.52513C2.00253 1.04772 2.64373 0.78098 3.67754 0.641988C4.72573 0.501062 6.10025 0.5 8 0.5H16C17.8998 0.5 19.2743 0.501062 20.3225 0.641988C21.3563 0.78098 21.9975 1.04772 22.4749 1.52513C22.9523 2.00253 23.219 2.64373 23.358 3.67754C23.4989 4.72573 23.5 6.10025 23.5 8V16C23.5 17.8998 23.4989 19.2743 23.358 20.3225C23.219 21.3563 22.9523 21.9975 22.4749 22.4749C21.9975 22.9523 21.3563 23.219 20.3225 23.358C19.2743 23.4989 17.8998 23.5 16 23.5H8C6.10025 23.5 4.72573 23.4989 3.67754 23.358C2.64373 23.219 2.00253 22.9523 1.52513 22.4749C1.04772 21.9975 0.78098 21.3563 0.641988 20.3225C0.501062 19.2743 0.5 17.8998 0.5 16V8Z" stroke="#01062F" stroke-opacity="0.173"/>
</g>
<defs>
<filter id="filter0_i_645_22993" x="0" y="0" width="24" height="25.5" filterUnits="userSpaceOnUse" color-interpolation-filters="sRGB">
<feFlood flood-opacity="0" result="BackgroundImageFix"/>
<feBlend mode="normal" in="SourceGraphic" in2="BackgroundImageFix" result="shape"/>
<feColorMatrix in="SourceAlpha" type="matrix" values="0 0 0 0 0 0 0 0 0 0 0 0 0 0 0 0 0 0 127 0" result="hardAlpha"/>
<feOffset dy="1.5"/>
<feGaussianBlur stdDeviation="1"/>
<feComposite in2="hardAlpha" operator="arithmetic" k2="-1" k3="1"/>
<feColorMatrix type="matrix" values="0 0 0 0 0 0 0 0 0 0 0 0 0 0 0 0 0 0 0.133 0"/>
<feBlend mode="normal" in2="shape" result="effect1_innerShadow_645_22993"/>
</filter>
</defs>
</svg>
