<svg xmlns="http://www.w3.org/2000/svg" width="43.46" height="43.464" viewBox="0 0 43.46 43.464">
  <path id="패스_8988" data-name="패스 8988" d="M31.915,5.686a6.157,6.157,0,0,1,8.708,0l1.035,1.037a6.16,6.16,0,0,1,0,8.709L24.789,32.308a6.259,6.259,0,0,1-2.669,1.565L13.566,36.32a1.947,1.947,0,0,1-2.019-.6,1.891,1.891,0,0,1-.522-1.942l2.446-8.554a6.259,6.259,0,0,1,1.565-2.669Zm5.731,2.9a1.967,1.967,0,0,0-2.831,0l-2.489,2.488,3.943,3.943,2.489-2.566a1.96,1.96,0,0,0,0-2.829L37.646,8.589ZM17.424,26.355l-1.437,5,5-1.437a2,2,0,0,0,.89-.522L33.369,17.921l-3.943-3.943L17.946,25.465A2,2,0,0,0,17.424,26.355Zm-.316-17.33a2.053,2.053,0,0,1,0,4.106H7.527a3.421,3.421,0,0,0-3.422,3.422V39.819A3.421,3.421,0,0,0,7.527,43.24H30.794a3.421,3.421,0,0,0,3.422-3.422v-9.58a2.053,2.053,0,1,1,4.106,0v9.58a7.528,7.528,0,0,1-7.527,7.527H7.527A7.528,7.528,0,0,1,0,39.819V16.552A7.528,7.528,0,0,1,7.527,9.025Z" transform="translate(0 -3.882)" fill="#3250d2"/>
</svg>
