<svg width="20" height="20" viewBox="0 0 20 20" fill="none" xmlns="http://www.w3.org/2000/svg">
<path d="M17 19.9999H3C2.73478 19.9999 2.48043 19.8946 2.29289 19.707C2.10536 19.5195 2 19.2651 2 18.9999V9.99992H1.58664C0.672607 9.99992 0.23764 8.87481 0.913978 8.25997L9.327 0.61192C9.51111 0.444398 9.75108 0.351562 10 0.351562C10.2489 0.351563 10.4889 0.444398 10.673 0.61192L19.086 8.25997C19.7624 8.87482 19.3274 9.99992 18.4134 9.99992H18V18.9999C18 19.2651 17.8946 19.5195 17.7071 19.707C17.5196 19.8946 17.2652 19.9999 17 19.9999ZM11 17.9999H16V8.15692L10 2.70292L4 8.15692V17.9999H9V12.9999C9 12.4476 9.44771 11.9999 10 11.9999C10.5523 11.9999 11 12.4476 11 12.9999V17.9999Z" fill="#343841"/>
</svg>
