<svg width="104" height="48" viewBox="0 0 104 48" fill="none" xmlns="http://www.w3.org/2000/svg">
<rect width="48" height="48" transform="translate(0.5)" fill="white"/>
<path d="M24.5084 4.00098C12.9042 4.00098 3.5 11.272 3.5 20.2538C3.5 26.0278 7.39604 31.0945 13.2401 33.9733L11.2585 41.2114C11.1913 41.4417 11.2417 41.672 11.4096 41.8365C11.5272 41.9352 11.6783 42.001 11.8295 42.001C11.9638 42.001 12.0814 41.9516 12.1989 41.8529L20.7131 36.227C21.9558 36.3915 23.2153 36.4902 24.4916 36.4902C36.0958 36.4902 45.5 29.2192 45.5 20.2373C45.5 11.2555 36.0958 4.00098 24.5084 4.00098Z" fill="#381E1E"/>
<path d="M10.9892 16.8374H8.74022C8.42603 16.8374 8.16145 16.7547 7.94648 16.6224C7.71497 16.4901 7.58268 16.2752 7.53307 16.0106C7.53307 15.9445 7.51654 15.8618 7.5 15.7791C7.5 15.4484 7.61575 15.1838 7.84726 15.0184C8.07877 14.8365 8.37642 14.7373 8.72368 14.7373H15.6028C15.917 14.7373 16.1815 14.8034 16.3965 14.9523C16.628 15.1011 16.7603 15.2995 16.8099 15.5641C16.8099 15.6303 16.8265 15.7129 16.8265 15.7956C16.8265 16.1429 16.7107 16.3909 16.4792 16.5728C16.2477 16.7547 15.95 16.8539 15.6028 16.8539H13.3538V24.6095C13.3538 24.9733 13.2381 25.2874 13.0231 25.5024C12.8081 25.7339 12.5105 25.8497 12.1467 25.8497C11.849 25.8497 11.5845 25.767 11.386 25.6016C11.1711 25.4363 11.0388 25.2213 10.9892 24.9236C10.9726 24.8244 10.9726 24.7087 10.9726 24.6095V16.8539L10.9892 16.8374Z" fill="#FFF100"/>
<path d="M17.4216 15.3163C17.5208 15.0518 17.6696 14.8533 17.8515 14.7376C18.05 14.6218 18.2815 14.5557 18.5791 14.5557H19.1413C19.4555 14.5557 19.7036 14.6218 19.9186 14.7376C20.1335 14.8533 20.2989 15.1014 20.4146 15.4652L23.292 23.7994C23.3912 24.064 23.4408 24.279 23.4904 24.4609C23.5069 24.5766 23.5235 24.6759 23.54 24.742C23.54 25.0397 23.4242 25.3042 23.2093 25.5192C22.9943 25.7342 22.7297 25.8334 22.4155 25.8334C21.8698 25.8334 21.506 25.6019 21.3407 25.1554L20.7288 23.3364H16.8924L16.2806 25.1554C16.1317 25.6019 15.768 25.8334 15.2057 25.8334C14.9246 25.8334 14.6931 25.7673 14.5112 25.6184C14.3293 25.4696 14.197 25.2712 14.1474 25.0066C14.1474 24.9239 14.1309 24.8412 14.1309 24.7585C14.1309 24.6428 14.1474 24.494 14.197 24.3121C14.2466 24.1467 14.2962 23.9648 14.3624 23.7994L17.4381 15.3163H17.4216ZM18.8602 17.2511H18.8272L17.4216 21.6167H20.2162L18.8602 17.2511Z" fill="#FFF100"/>
<path d="M23.9043 15.7959C23.9043 15.4321 24.0035 15.1179 24.235 14.9029C24.45 14.6714 24.7311 14.5557 25.1114 14.5557C25.4091 14.5557 25.6737 14.6383 25.8721 14.8037C26.0871 14.9691 26.2028 15.2006 26.269 15.4817C26.2855 15.5809 26.3021 15.6801 26.2855 15.7959V23.5514H30.2542C30.5684 23.5514 30.8495 23.6175 31.0645 23.7664C31.2795 23.9152 31.4118 24.1136 31.4779 24.3617C31.4779 24.4278 31.511 24.5105 31.511 24.5932C31.511 24.9239 31.3952 25.1719 31.1637 25.3704C30.9322 25.5523 30.6346 25.6515 30.2873 25.6515H25.3264C24.9626 25.6515 24.665 25.5854 24.4335 25.42C24.202 25.2712 24.0531 25.0231 23.987 24.6759C23.9539 24.5436 23.9374 24.3782 23.9374 24.1963V15.7959H23.9043Z" fill="#FFF100"/>
<path d="M31.7421 15.7959C31.7421 15.4321 31.8578 15.1179 32.0728 14.9029C32.2878 14.6714 32.5854 14.5557 32.9492 14.5557C33.2469 14.5557 33.5114 14.6383 33.7099 14.8037C33.9248 14.9691 34.0571 15.2006 34.1067 15.4817C34.1233 15.5809 34.1398 15.6801 34.1233 15.7959V19.4008L37.8605 15.1014C38.0258 14.9195 38.1747 14.7872 38.307 14.688C38.4392 14.6053 38.6046 14.5557 38.803 14.5557C39.0676 14.5557 39.2991 14.6383 39.5141 14.7872C39.7291 14.936 39.8614 15.1179 39.911 15.3659C39.911 15.3659 39.911 15.4156 39.9275 15.4652C39.9275 15.4982 39.9275 15.5313 39.9275 15.5644C39.9275 15.7297 39.8779 15.8786 39.8118 16.0109C39.7456 16.1431 39.6464 16.2754 39.5306 16.4077L37.0833 19.0866L39.9771 23.6671L40.0598 23.816C40.2582 24.1302 40.374 24.3617 40.4071 24.5105C40.4071 24.5105 40.4071 24.5436 40.4071 24.5766V24.6593C40.4071 25.0893 40.2913 25.3869 40.0433 25.5688C39.8118 25.7507 39.5141 25.8499 39.1834 25.8499C38.9353 25.8499 38.7369 25.8003 38.5881 25.7176C38.4392 25.6184 38.2739 25.4531 38.1251 25.205L35.38 20.7898L34.0737 22.1458V24.6097C34.0737 24.9735 33.9745 25.2877 33.7595 25.5027C33.5445 25.7342 33.2469 25.8499 32.8831 25.8499C32.5854 25.8499 32.3374 25.7673 32.1224 25.6019C31.9074 25.4365 31.7751 25.2216 31.7255 24.9239C31.709 24.8247 31.709 24.7089 31.709 24.6097V15.8124L31.7421 15.7959Z" fill="#FFF100"/>
<path d="M62.902 13.526V20.036H61.754V7.478H62.902V12.574H64.918V13.526H62.902ZM59.71 8.78C59.71 9.68533 59.6213 10.572 59.444 11.44C59.2667 12.2987 58.9587 13.12 58.52 13.904C58.0907 14.688 57.5073 15.4253 56.77 16.116C56.0327 16.7973 55.104 17.418 53.984 17.978L53.354 17.096C54.5207 16.5173 55.4587 15.878 56.168 15.178C56.8867 14.4687 57.442 13.6893 57.834 12.84L53.606 13.246L53.41 12.238L58.184 11.916C58.3987 11.216 58.5247 10.4833 58.562 9.718H54.04V8.78H59.71ZM75.2809 13.526V20.036H74.1329V7.478H75.2809V12.574H77.2969V13.526H75.2809ZM72.0889 8.78C72.0889 9.68533 72.0002 10.572 71.8229 11.44C71.6456 12.2987 71.3376 13.12 70.8989 13.904C70.4696 14.688 69.8862 15.4253 69.1489 16.116C68.4116 16.7973 67.4829 17.418 66.3629 17.978L65.7329 17.096C66.8996 16.5173 67.8376 15.878 68.5469 15.178C69.2656 14.4687 69.8209 13.6893 70.2129 12.84L65.9849 13.246L65.7889 12.238L70.5629 11.916C70.7776 11.216 70.9036 10.4833 70.9409 9.718H66.4189V8.78H72.0889ZM89.3958 18.426H77.9858V17.474H83.0958V14.856C82.5078 14.8187 81.9711 14.716 81.4858 14.548C81.0005 14.3707 80.5805 14.142 80.2258 13.862C79.8711 13.5727 79.5958 13.2367 79.3998 12.854C79.2038 12.4713 79.1058 12.0513 79.1058 11.594C79.1058 11.09 79.2178 10.6373 79.4418 10.236C79.6751 9.83467 79.9925 9.48933 80.3938 9.2C80.8045 8.91067 81.2898 8.69133 81.8498 8.542C82.4098 8.38333 83.0211 8.304 83.6838 8.304C84.3465 8.304 84.9531 8.38333 85.5038 8.542C86.0638 8.69133 86.5445 8.91067 86.9458 9.2C87.3565 9.48933 87.6738 9.83467 87.8978 10.236C88.1218 10.6373 88.2338 11.09 88.2338 11.594C88.2338 12.0513 88.1358 12.4713 87.9398 12.854C87.7438 13.2367 87.4685 13.5727 87.1138 13.862C86.7685 14.142 86.3531 14.3707 85.8678 14.548C85.3825 14.716 84.8458 14.8187 84.2578 14.856V17.474H89.3958V18.426ZM80.2118 11.594C80.2118 11.958 80.2958 12.2847 80.4638 12.574C80.6411 12.8633 80.8838 13.1153 81.1918 13.33C81.4998 13.5353 81.8638 13.694 82.2838 13.806C82.7131 13.918 83.1798 13.974 83.6838 13.974C84.1878 13.974 84.6498 13.918 85.0698 13.806C85.4898 13.694 85.8538 13.5353 86.1618 13.33C86.4698 13.1153 86.7078 12.8633 86.8758 12.574C87.0531 12.2847 87.1418 11.958 87.1418 11.594C87.1418 11.23 87.0531 10.9033 86.8758 10.614C86.7078 10.3247 86.4698 10.0773 86.1618 9.872C85.8538 9.65733 85.4898 9.494 85.0698 9.382C84.6498 9.27 84.1878 9.214 83.6838 9.214C83.1798 9.214 82.7131 9.27 82.2838 9.382C81.8638 9.494 81.4998 9.65733 81.1918 9.872C80.8838 10.0773 80.6411 10.3247 80.4638 10.614C80.2958 10.9033 80.2118 11.23 80.2118 11.594ZM101.733 15.178H90.3647V14.254H95.4747V12.924H91.8627V7.814H100.333V8.71H93.0107V9.9H99.9967V10.768H93.0107V12.028H100.403V12.924H96.6227V14.254H101.733V15.178ZM100.263 16.298V20.05H99.1147V17.222H91.6387V16.298H100.263ZM54.698 32.476V28.066H63.14V32.476H54.698ZM55.818 28.99V31.552H62.006V28.99H55.818ZM64.624 34.828H59.584V37.362H58.436V34.828H53.214V33.904H64.624V34.828ZM63.35 38.818V39.756H54.67V36.172H55.818V38.818H63.35ZM75.8549 40.064H74.7069V27.478H75.8549V40.064ZM69.6949 28.402C70.1896 28.402 70.6422 28.4767 71.0529 28.626C71.4636 28.766 71.8136 28.9667 72.1029 29.228C72.4016 29.48 72.6349 29.788 72.8029 30.152C72.9709 30.516 73.0549 30.9173 73.0549 31.356C73.0549 31.7947 72.9709 32.196 72.8029 32.56C72.6349 32.924 72.4016 33.2367 72.1029 33.498C71.8136 33.75 71.4636 33.9507 71.0529 34.1C70.6422 34.24 70.1896 34.31 69.6949 34.31C69.2096 34.31 68.7616 34.24 68.3509 34.1C67.9402 33.9507 67.5856 33.75 67.2869 33.498C66.9882 33.2367 66.7549 32.924 66.5869 32.56C66.4189 32.196 66.3349 31.7947 66.3349 31.356C66.3349 30.9173 66.4189 30.516 66.5869 30.152C66.7549 29.788 66.9882 29.48 67.2869 29.228C67.5856 28.9667 67.9402 28.766 68.3509 28.626C68.7616 28.4767 69.2096 28.402 69.6949 28.402ZM69.6949 29.382C69.3682 29.382 69.0649 29.4287 68.7849 29.522C68.5142 29.6153 68.2809 29.7507 68.0849 29.928C67.8889 30.1053 67.7349 30.3153 67.6229 30.558C67.5109 30.7913 67.4549 31.0573 67.4549 31.356C67.4549 31.6453 67.5109 31.9113 67.6229 32.154C67.7349 32.3967 67.8889 32.6067 68.0849 32.784C68.2809 32.952 68.5142 33.0873 68.7849 33.19C69.0649 33.2833 69.3682 33.33 69.6949 33.33C70.0216 33.33 70.3202 33.2833 70.5909 33.19C70.8709 33.0873 71.1089 32.952 71.3049 32.784C71.5009 32.6067 71.6549 32.3967 71.7669 32.154C71.8789 31.9113 71.9349 31.6453 71.9349 31.356C71.9349 31.0573 71.8789 30.7913 71.7669 30.558C71.6549 30.3153 71.5009 30.1053 71.3049 29.928C71.1089 29.7507 70.8709 29.6153 70.5909 29.522C70.3202 29.4287 70.0216 29.382 69.6949 29.382ZM65.7049 36.34C66.2836 36.34 66.9042 36.3353 67.5669 36.326C68.2296 36.3167 68.9109 36.298 69.6109 36.27C70.3202 36.242 71.0342 36.2 71.7529 36.144C72.4809 36.088 73.1902 36.0087 73.8809 35.906L73.9789 36.76C73.2696 36.8907 72.5509 36.9933 71.8229 37.068C71.1042 37.1427 70.3949 37.1987 69.6949 37.236C69.0042 37.264 68.3322 37.2827 67.6789 37.292C67.0256 37.3013 66.4142 37.306 65.8449 37.306L65.7049 36.34ZM87.6738 33.61V40.036H86.5258V27.492H87.6738V32.644H89.7318V33.61H87.6738ZM85.3358 29.494V30.418H77.9298V29.494H81.0938V27.632H82.2418V29.494H85.3358ZM81.6818 31.454C82.1298 31.454 82.5405 31.5287 82.9138 31.678C83.2871 31.818 83.6091 32.0187 83.8798 32.28C84.1598 32.532 84.3745 32.8353 84.5238 33.19C84.6731 33.5447 84.7478 33.932 84.7478 34.352C84.7478 34.7813 84.6731 35.1733 84.5238 35.528C84.3745 35.8827 84.1598 36.186 83.8798 36.438C83.6091 36.69 83.2871 36.886 82.9138 37.026C82.5405 37.166 82.1298 37.236 81.6818 37.236C81.2431 37.236 80.8371 37.166 80.4638 37.026C80.0905 36.886 79.7685 36.69 79.4978 36.438C79.2271 36.186 79.0171 35.8827 78.8678 35.528C78.7185 35.1733 78.6438 34.7813 78.6438 34.352C78.6438 33.932 78.7185 33.5447 78.8678 33.19C79.0171 32.8353 79.2271 32.532 79.4978 32.28C79.7685 32.0187 80.0905 31.818 80.4638 31.678C80.8371 31.5287 81.2431 31.454 81.6818 31.454ZM81.6818 36.284C81.9711 36.284 82.2371 36.2373 82.4798 36.144C82.7225 36.0413 82.9278 35.906 83.0958 35.738C83.2731 35.57 83.4085 35.3693 83.5018 35.136C83.6045 34.8933 83.6558 34.632 83.6558 34.352C83.6558 34.072 83.6045 33.8153 83.5018 33.582C83.4085 33.3393 83.2731 33.134 83.0958 32.966C82.9278 32.7887 82.7225 32.6533 82.4798 32.56C82.2371 32.4573 81.9711 32.406 81.6818 32.406C81.4018 32.406 81.1405 32.4573 80.8978 32.56C80.6551 32.6533 80.4451 32.7887 80.2678 32.966C80.0998 33.134 79.9645 33.3393 79.8618 33.582C79.7685 33.8153 79.7218 34.072 79.7218 34.352C79.7218 34.632 79.7685 34.8933 79.8618 35.136C79.9645 35.3693 80.0998 35.57 80.2678 35.738C80.4451 35.906 80.6551 36.0413 80.8978 36.144C81.1405 36.2373 81.4018 36.284 81.6818 36.284ZM100.683 40.036H99.5347V27.478H100.683V40.036ZM97.0007 28.836C97.0007 29.7413 96.8934 30.6187 96.6787 31.468C96.4641 32.308 96.1187 33.106 95.6427 33.862C95.1761 34.6087 94.5741 35.3087 93.8367 35.962C93.0994 36.606 92.2081 37.1847 91.1627 37.698L90.5467 36.76C92.2361 35.9573 93.5101 34.9633 94.3687 33.778C95.2274 32.5927 95.7174 31.2533 95.8387 29.76H91.1207V28.836H97.0007Z" fill="#B2B2B2"/>
</svg>
