<svg xmlns="http://www.w3.org/2000/svg" width="16" height="18" viewBox="0 0 16 18">
  <path id="패스_9174" data-name="패스 9174" d="M41,19a1,1,0,1,1-1-1A1,1,0,0,1,41,19Zm7-3.667v9.333A1.333,1.333,0,0,1,46.667,26H33.333A1.333,1.333,0,0,1,32,24.667V15.333A1.333,1.333,0,0,1,33.333,14h3V11.667a3.667,3.667,0,1,1,7.333,0V14h3A1.333,1.333,0,0,1,48,15.333ZM42.333,19a2.333,2.333,0,1,0-3,2.233v1.433a.667.667,0,1,0,1.333,0V21.233A2.325,2.325,0,0,0,42.333,19Zm0-7.333a2.333,2.333,0,0,0-4.667,0V14h4.667Z" transform="translate(-32 -8)" fill="#2e2d2d"/>
</svg>
