<svg width="50" height="41" viewBox="0 0 50 41" fill="none" xmlns="http://www.w3.org/2000/svg">
<path d="M0 17C0 11.3431 0 8.51472 1.75736 6.75736C3.51472 5 6.34315 5 12 5H30C35.6569 5 38.4853 5 40.2426 6.75736C42 8.51472 42 11.3431 42 17C42 22.6569 42 25.4853 40.2426 27.2426C38.4853 29 35.6569 29 30 29H12C6.34315 29 3.51472 29 1.75736 27.2426C0 25.4853 0 22.6569 0 17Z" fill="#3250D2"/>
<g filter="url(#filter0_ddd_807_6637)">
<path d="M19 17C19 12.3088 19 9.96327 20.2399 8.34743C20.5591 7.93144 20.9314 7.55908 21.3474 7.23988C22.9633 6 25.3088 6 30 6C34.6912 6 37.0367 6 38.6526 7.23988C39.0686 7.55908 39.4409 7.93144 39.7601 8.34743C41 9.96327 41 12.3088 41 17C41 21.6912 41 24.0367 39.7601 25.6526C39.4409 26.0686 39.0686 26.4409 38.6526 26.7601C37.0367 28 34.6912 28 30 28C25.3088 28 22.9633 28 21.3474 26.7601C20.9314 26.4409 20.5591 26.0686 20.2399 25.6526C19 24.0367 19 21.6912 19 17Z" fill="#FCFCFD" shape-rendering="crispEdges"/>
<path d="M19.8432 8.04305C19.1453 8.95252 18.8181 10.0451 18.6581 11.4645C18.5 12.8672 18.5 14.6494 18.5 16.9675V17V17.0325C18.5 19.3506 18.5 21.1328 18.6581 22.5355C18.8181 23.9549 19.1453 25.0475 19.8432 25.9569C20.189 26.4076 20.5924 26.811 21.0431 27.1568C21.9525 27.8547 23.0451 28.1819 24.4645 28.3419C25.8672 28.5 27.6494 28.5 29.9675 28.5H30H30.0325C32.3506 28.5 34.1328 28.5 35.5355 28.3419C36.9549 28.1819 38.0475 27.8547 38.9569 27.1568C39.4076 26.811 39.811 26.4076 40.1568 25.9569C40.8547 25.0475 41.1819 23.9549 41.3419 22.5355C41.5 21.1328 41.5 19.3506 41.5 17.0325V17V16.9675C41.5 14.6494 41.5 12.8672 41.3419 11.4645C41.1819 10.0451 40.8547 8.95252 40.1568 8.04305C39.811 7.59239 39.4076 7.18901 38.9569 6.8432C38.0475 6.14534 36.9549 5.81814 35.5355 5.65813C34.1328 5.49999 32.3506 5.5 30.0325 5.5H30H29.9675C27.6494 5.5 25.8672 5.49999 24.4645 5.65813C23.0451 5.81814 21.9525 6.14534 21.0431 6.8432C20.5924 7.18901 20.189 7.59239 19.8432 8.04305Z" stroke="black" stroke-opacity="0.078" shape-rendering="crispEdges"/>
</g>
<defs>
<filter id="filter0_ddd_807_6637" x="10" y="0" width="40" height="41" filterUnits="userSpaceOnUse" color-interpolation-filters="sRGB">
<feFlood flood-opacity="0" result="BackgroundImageFix"/>
<feColorMatrix in="SourceAlpha" type="matrix" values="0 0 0 0 0 0 0 0 0 0 0 0 0 0 0 0 0 0 127 0" result="hardAlpha"/>
<feMorphology radius="2" operator="erode" in="SourceAlpha" result="effect1_dropShadow_807_6637"/>
<feOffset dy="2"/>
<feGaussianBlur stdDeviation="1.5"/>
<feComposite in2="hardAlpha" operator="out"/>
<feColorMatrix type="matrix" values="0 0 0 0 0 0 0 0 0 0 0 0 0 0 0.24 0 0 0 0.051 0"/>
<feBlend mode="normal" in2="BackgroundImageFix" result="effect1_dropShadow_807_6637"/>
<feColorMatrix in="SourceAlpha" type="matrix" values="0 0 0 0 0 0 0 0 0 0 0 0 0 0 0 0 0 0 127 0" result="hardAlpha"/>
<feMorphology radius="4" operator="erode" in="SourceAlpha" result="effect2_dropShadow_807_6637"/>
<feOffset dy="3"/>
<feGaussianBlur stdDeviation="6"/>
<feComposite in2="hardAlpha" operator="out"/>
<feColorMatrix type="matrix" values="0 0 0 0 0 0 0 0 0 0 0 0 0 0 0 0 0 0 0.055 0"/>
<feBlend mode="normal" in2="effect1_dropShadow_807_6637" result="effect2_dropShadow_807_6637"/>
<feColorMatrix in="SourceAlpha" type="matrix" values="0 0 0 0 0 0 0 0 0 0 0 0 0 0 0 0 0 0 127 0" result="hardAlpha"/>
<feMorphology radius="8" operator="erode" in="SourceAlpha" result="effect3_dropShadow_807_6637"/>
<feOffset dy="4"/>
<feGaussianBlur stdDeviation="8"/>
<feComposite in2="hardAlpha" operator="out"/>
<feColorMatrix type="matrix" values="0 0 0 0 0 0 0 0 0 0 0 0 0 0 0 0 0 0 0.078 0"/>
<feBlend mode="normal" in2="effect2_dropShadow_807_6637" result="effect3_dropShadow_807_6637"/>
<feBlend mode="normal" in="SourceGraphic" in2="effect3_dropShadow_807_6637" result="shape"/>
</filter>
</defs>
</svg>
