<svg width="148" height="48" viewBox="0 0 148 48" fill="none" xmlns="http://www.w3.org/2000/svg">
<rect width="40" height="40" transform="translate(1.5 4)" fill="white"/>
<path d="M1.50235 11.0155C2.04877 19.6045 5.67697 27.6254 11.775 33.7229C17.873 39.8205 25.8943 43.4485 34.484 43.9949C35.3583 44.0604 36.2325 43.4922 36.8664 42.4869L39.3362 38.3125C39.8389 37.4602 39.5984 36.3674 38.7897 35.7773L31.4459 30.5321C30.6809 29.9857 29.6318 30.0731 28.9761 30.7288L24.6485 35.0561C24.3425 35.3621 23.8835 35.4058 23.5338 35.231C21.37 34.0289 18.026 31.9308 15.7747 29.7016C13.5454 27.4505 11.4471 24.1067 10.245 21.943C10.0483 21.5934 10.1139 21.1344 10.4199 20.8284L14.7693 16.5011C15.425 15.8455 15.5124 14.7964 14.966 14.0315L9.72044 6.71001C9.15217 5.90137 8.03748 5.66096 7.18507 6.18548L3.01046 8.65511C2.02691 9.28891 1.45864 10.1413 1.50235 11.0155Z" stroke="#343841" stroke-width="2" stroke-linecap="round"/>
<path d="M41.5001 23.6696C41.5219 12.8076 32.7137 4 21.8291 4" stroke="#FFD80A" stroke-width="2" stroke-linecap="round"/>
<path d="M34.9431 23.6697C34.9431 16.4357 29.0636 10.5566 21.8291 10.5566" stroke="#FFD80A" stroke-width="2" stroke-linecap="round"/>
<path d="M28.3861 23.6698C28.3861 20.0419 25.4573 17.1133 21.8291 17.1133" stroke="#FFD80A" stroke-width="2" stroke-linecap="round"/>
<path d="M88.41 17.036H87.304V10.456H85.526V16.406H84.448V4.758H85.526V9.518H87.304V4.478H88.41V17.036ZM79.324 12.99C79.744 12.99 80.136 12.9853 80.5 12.976C80.864 12.9573 81.214 12.934 81.55 12.906C81.8953 12.878 82.2313 12.8407 82.558 12.794C82.894 12.7473 83.23 12.6867 83.566 12.612L83.664 13.564C83.2907 13.648 82.9267 13.718 82.572 13.774C82.2173 13.8207 81.8533 13.858 81.48 13.886C81.1067 13.9047 80.7193 13.9187 80.318 13.928C79.9167 13.9373 79.4827 13.942 79.016 13.942H78.19V6.004H82.866V6.942H79.324V12.99ZM101.503 15.51H90.1069V14.572H93.2709V11.59H91.1569V10.666H93.0749V6.564H91.1289V5.64H100.439V6.564H98.4929V10.666H100.425V11.59H98.2969V14.572H101.503V15.51ZM97.3449 10.666V6.564H94.2229V10.666H97.3449ZM97.1489 14.572V11.59H94.4189V14.572H97.1489ZM103.13 11.632V5.318H104.264V7.53H107.652V5.318H108.786V8.02H111.684V4.478H112.846V13.774H111.684V8.958H108.786V11.632H103.13ZM104.264 8.44V10.708H107.652V8.44H104.264ZM113.14 16.756H104.768V12.864H105.916V15.818H113.14V16.756ZM115.439 7.25V6.312H119.989V4.674H121.137V6.312H125.631V7.25H115.439ZM126.261 15.566H114.879V14.628H119.989V12.864C118.859 12.7987 117.982 12.5607 117.357 12.15C116.741 11.7393 116.433 11.184 116.433 10.484C116.433 10.1013 116.526 9.76533 116.713 9.476C116.909 9.17733 117.184 8.93 117.539 8.734C117.903 8.52867 118.337 8.37467 118.841 8.272C119.354 8.16 119.928 8.104 120.563 8.104C121.188 8.104 121.753 8.16 122.257 8.272C122.761 8.37467 123.19 8.52867 123.545 8.734C123.899 8.93 124.17 9.17733 124.357 9.476C124.553 9.76533 124.651 10.1013 124.651 10.484C124.651 11.184 124.338 11.7393 123.713 12.15C123.097 12.5513 122.238 12.7893 121.137 12.864V14.628H126.261V15.566ZM117.595 10.484C117.595 10.96 117.856 11.3287 118.379 11.59C118.901 11.8513 119.629 11.982 120.563 11.982C121.468 11.982 122.182 11.8513 122.705 11.59C123.227 11.3287 123.489 10.96 123.489 10.484C123.489 10.008 123.227 9.644 122.705 9.392C122.182 9.13067 121.468 9 120.563 9C119.629 9 118.901 9.13067 118.379 9.392C117.856 9.644 117.595 10.008 117.595 10.484Z" fill="#B2B2B2"/>
<path d="M60.344 34.072L59.246 32.74L62.846 29.662H64.466V41.272H66.968V43H59.714V41.272H62.486V33.154C62.486 32.866 62.486 32.56 62.504 32.254L60.344 34.072ZM69.7747 40.21C70.5307 40.93 71.6107 41.452 72.6727 41.452C74.4187 41.452 75.4447 40.192 75.4447 38.554C75.4447 36.916 74.4007 36.052 72.7447 36.052C72.0427 36.052 71.3587 36.196 70.6927 36.394L69.4687 36.052L70.5487 29.698H76.9927V31.516H71.9347L71.3947 34.612C71.9707 34.486 72.5827 34.414 73.1587 34.414C75.5887 34.414 77.4247 35.818 77.4247 38.446C77.4247 41.254 75.3907 43.144 72.5467 43.144C71.5207 43.144 70.3327 42.838 69.4867 42.208C69.1987 42.028 68.9647 41.848 68.7487 41.65L69.7747 40.21ZM80.5193 38.932C80.6813 40.3 81.9593 41.47 83.3273 41.47C84.6773 41.47 85.8653 40.57 85.8653 39.184C85.8653 37.15 84.2633 36.916 82.6433 36.916V35.476C84.1373 35.476 85.6313 35.08 85.6313 33.316C85.6313 32.038 84.8213 31.246 83.5073 31.246C82.1393 31.246 81.0233 32.29 81.1313 33.712L79.1693 33.37C79.5113 31.012 81.1493 29.554 83.6153 29.554C85.6313 29.554 87.5573 30.724 87.5573 32.974C87.5573 34.504 86.8913 35.512 85.3613 35.998C86.9453 36.448 87.8453 37.456 87.8453 39.13C87.8453 41.668 85.8113 43.162 83.3453 43.162C80.9153 43.162 79.4933 42.064 78.7733 39.652L80.5193 38.932ZM90.742 38.932C90.904 40.3 92.182 41.47 93.55 41.47C94.9 41.47 96.088 40.57 96.088 39.184C96.088 37.15 94.486 36.916 92.866 36.916V35.476C94.36 35.476 95.854 35.08 95.854 33.316C95.854 32.038 95.044 31.246 93.73 31.246C92.362 31.246 91.246 32.29 91.354 33.712L89.392 33.37C89.734 31.012 91.372 29.554 93.838 29.554C95.854 29.554 97.78 30.724 97.78 32.974C97.78 34.504 97.114 35.512 95.584 35.998C97.168 36.448 98.068 37.456 98.068 39.13C98.068 41.668 96.034 43.162 93.568 43.162C91.138 43.162 89.716 42.064 88.996 39.652L90.742 38.932ZM99.2906 35.602H105.411V37.132H99.2906V35.602ZM113.288 36.052C114.854 36.538 115.736 37.636 115.736 39.292C115.736 41.938 113.522 43.144 111.182 43.144C108.734 43.144 106.628 41.884 106.628 39.292C106.628 37.618 107.51 36.538 109.094 36.052C107.762 35.548 107.078 34.486 107.078 33.082C107.078 30.832 109.058 29.554 111.182 29.554C113.306 29.554 115.286 30.832 115.286 33.082C115.286 34.486 114.602 35.548 113.288 36.052ZM111.182 31.066C109.904 31.066 109.004 31.84 109.004 33.118C109.004 34.522 109.832 35.314 111.182 35.314C112.514 35.314 113.36 34.504 113.36 33.118C113.36 31.804 112.406 31.066 111.182 31.066ZM111.182 41.578C112.568 41.578 113.702 40.786 113.702 39.256C113.702 37.69 112.622 36.898 111.182 36.898C109.742 36.898 108.662 37.672 108.662 39.256C108.662 40.714 109.724 41.578 111.182 41.578ZM124.591 29.698L120.091 35.278C120.703 34.936 121.405 34.756 122.107 34.756C124.519 34.756 126.049 36.43 126.049 38.734C126.049 41.326 123.979 43.144 121.405 43.144C118.651 43.144 116.905 41.344 116.905 38.518C116.905 37.096 117.661 35.674 118.489 34.558L122.125 29.698H124.591ZM121.369 41.506C122.863 41.506 124.069 40.444 124.069 38.878C124.069 37.294 123.025 36.268 121.441 36.268C119.929 36.268 118.813 37.366 118.813 38.842C118.813 40.39 119.713 41.506 121.369 41.506ZM136.668 39.634H134.832V43H133.104V39.634H126.588V38.194L132.978 29.68H134.832V38.086H136.668V39.634ZM133.104 38.086V33.226C133.104 32.83 133.14 32.416 133.194 31.948L128.73 38.086H133.104ZM139.06 38.932C139.222 40.3 140.5 41.47 141.868 41.47C143.218 41.47 144.406 40.57 144.406 39.184C144.406 37.15 142.804 36.916 141.184 36.916V35.476C142.678 35.476 144.172 35.08 144.172 33.316C144.172 32.038 143.362 31.246 142.048 31.246C140.68 31.246 139.564 32.29 139.672 33.712L137.71 33.37C138.052 31.012 139.69 29.554 142.156 29.554C144.172 29.554 146.098 30.724 146.098 32.974C146.098 34.504 145.432 35.512 143.902 35.998C145.486 36.448 146.386 37.456 146.386 39.13C146.386 41.668 144.352 43.162 141.886 43.162C139.456 43.162 138.034 42.064 137.314 39.652L139.06 38.932Z" fill="#343841"/>
</svg>
