<svg width="24" height="24" viewBox="0 0 24 24" fill="none" xmlns="http://www.w3.org/2000/svg">
<path d="M14.337 18.4379L14.1414 17.4572C13.884 17.5085 13.6571 17.659 13.5097 17.8761L14.337 18.4379ZM8.78453 18.2265L9.78443 18.2411C9.79104 17.7883 9.49247 17.3875 9.05667 17.2642L8.78453 18.2265ZM7.29425 21.9997L6.50241 21.389C6.27093 21.6891 6.22902 22.0944 6.39419 22.4355C6.55935 22.7767 6.9032 22.9951 7.2822 22.9997L7.29425 21.9997ZM21 10.3333C21 13.6611 18.2062 16.6462 14.1414 17.4572L14.5327 19.4185C19.2589 18.4756 23 14.869 23 10.3333H21ZM12 3C17.149 3 21 6.44622 21 10.3333H23C23 5.0157 17.8967 1 12 1V3ZM3 10.3333C3 6.44622 6.85098 3 12 3V1C6.10333 1 1 5.0157 1 10.3333H3ZM9.05667 17.2642C5.4225 16.2365 3 13.4379 3 10.3333H1C1 14.5587 4.25572 17.9849 8.5124 19.1888L9.05667 17.2642ZM8.08609 22.6105C9.18759 21.1823 9.75954 19.946 9.78443 18.2411L7.78464 18.2119C7.76791 19.3578 7.43002 20.1863 6.50241 21.389L8.08609 22.6105ZM13.5097 17.8761C11.8924 20.2583 8.96433 21.0198 7.3063 20.9998L7.2822 22.9997C9.35234 23.0246 13.0445 22.1218 15.1644 18.9996L13.5097 17.8761Z" fill="#3250D2"/>
<path fill-rule="evenodd" clip-rule="evenodd" d="M11.9957 6.87501C12.3942 6.8733 12.7556 7.10831 12.9157 7.4732L13.7228 9.3125H15.5417L16.1382 7.86824C16.3491 7.35779 16.9338 7.1149 17.4443 7.32574C17.9547 7.53658 18.1976 8.12131 17.9868 8.63176L17.7056 9.3125H18.4375C18.9898 9.3125 19.4375 9.76022 19.4375 10.3125C19.4375 10.8648 18.9898 11.3125 18.4375 11.3125H16.8795L15.6118 14.3818C15.4587 14.7523 15.0992 14.9956 14.6984 14.9999C14.2975 15.0043 13.9328 14.7689 13.7718 14.4018L12.4163 11.3125H11.6148L10.2941 14.3939C10.1395 14.7547 9.78807 14.9917 9.39561 14.9998C9.00314 15.0079 8.64223 14.7856 8.47287 14.4315L6.98119 11.3125H5.5625C5.01022 11.3125 4.5625 10.8648 4.5625 10.3125C4.5625 9.76022 5.01022 9.3125 5.5625 9.3125H6.02467L5.72287 8.68146C5.48458 8.18322 5.69531 7.58615 6.19354 7.34787C6.69178 7.10958 7.28885 7.32031 7.52713 7.81855L8.24163 9.3125H10.296L11.0809 7.48108C11.2378 7.11483 11.5972 6.87672 11.9957 6.87501ZM9.43882 11.3125H9.19816L9.32508 11.5779L9.43882 11.3125ZM14.6003 11.3125L14.6597 11.4478L14.7156 11.3125H14.6003Z" fill="#3250D2"/>
</svg>
