<svg width="24" height="24" viewBox="0 0 24 24" fill="none" xmlns="http://www.w3.org/2000/svg">
<rect width="24" height="24" fill="white"/>
<path d="M19.2732 18.3639C18.3328 17.0841 17.3924 16.8386 16.1449 16.5129C15.8487 16.4355 15.5353 16.3537 15.2004 16.2524C13.4549 15.7246 12.8731 14.141 13.4549 13.0852C14.3399 12.2823 14.9726 11.2503 15.3528 10.1344C16.2775 9.93596 17.0913 9.1308 17.0913 8.0001C17.0913 6.86816 16.2757 6.40321 15.7023 6.41563C15.6119 5.79327 15.4445 5.19301 15.2004 4.63923C14.2695 2.52776 11.7094 2.00011 10.5458 2C9.38212 2.00011 6.82208 2.52776 5.89115 4.63923C5.647 5.19301 5.47969 5.79326 5.38922 6.41562C4.81583 6.4032 4.00022 6.86816 4.00022 8.0001C4.00022 9.1308 4.81405 9.93596 5.7388 10.1344C6.11899 11.2503 6.7516 12.2823 7.63664 13.0852C8.21846 14.141 7.63664 15.7246 5.89115 16.2524C5.55628 16.3537 5.2428 16.4356 4.94665 16.5129C3.69916 16.8386 2.75876 17.0841 1.81836 18.3639" stroke="#3250D2" stroke-width="2" stroke-linecap="round" stroke-linejoin="round"/>
<path d="M14 8L18.5 10.5L22.5 18.5L19 22H16C15.6 22 13.1667 21.3333 12 21L10.5 17.5L11.5 10.5L14 8Z" fill="white"/>
<mask id="path-3-inside-1_710_24803" fill="white">
<path fill-rule="evenodd" clip-rule="evenodd" d="M20.8159 19.119C21.5009 18.2637 21.9106 17.1784 21.9106 15.9973C21.9106 13.2374 19.6733 11 16.9133 11C14.1534 11 11.916 13.2374 11.916 15.9973C11.916 18.7573 14.1534 20.9946 16.9133 20.9946C17.7695 20.9946 18.5754 20.7793 19.2799 20.3999L21.1425 22.635C21.496 23.0593 22.1266 23.1166 22.5509 22.763C22.9752 22.4095 23.0325 21.7789 22.6789 21.3546L20.8159 19.119Z"/>
</mask>
<path d="M20.8159 19.119L19.2549 17.8687L18.2334 19.1441L19.2795 20.3994L20.8159 19.119ZM19.2799 20.3999L20.8163 19.1195L19.7701 17.8641L18.3314 18.6391L19.2799 20.3999ZM21.1425 22.635L19.606 23.9154L19.606 23.9154L21.1425 22.635ZM22.5509 22.763L23.8313 24.2995L23.8313 24.2995L22.5509 22.763ZM22.6789 21.3546L24.2154 20.0743V20.0743L22.6789 21.3546ZM19.9106 15.9973C19.9106 16.7076 19.666 17.3554 19.2549 17.8687L22.3769 20.3693C23.3358 19.1721 23.9106 17.6491 23.9106 15.9973H19.9106ZM16.9133 13C18.5687 13 19.9106 14.3419 19.9106 15.9973H23.9106C23.9106 12.1328 20.7778 9 16.9133 9V13ZM13.916 15.9973C13.916 14.3419 15.258 13 16.9133 13V9C13.0488 9 9.91602 12.1328 9.91602 15.9973H13.916ZM16.9133 18.9946C15.258 18.9946 13.916 17.6527 13.916 15.9973H9.91602C9.91602 19.8618 13.0488 22.9946 16.9133 22.9946V18.9946ZM18.3314 18.6391C17.9112 18.8654 17.4303 18.9946 16.9133 18.9946V22.9946C18.1087 22.9946 19.2396 22.6932 20.2283 22.1606L18.3314 18.6391ZM22.6789 21.3546L20.8163 19.1195L17.7434 21.6802L19.606 23.9154L22.6789 21.3546ZM21.2705 21.2266C21.6948 20.873 22.3254 20.9304 22.6789 21.3546L19.606 23.9154C20.6667 25.1882 22.5584 25.3602 23.8313 24.2995L21.2705 21.2266ZM21.1425 22.635C20.7889 22.2107 20.8462 21.5802 21.2705 21.2266L23.8313 24.2995C25.1041 23.2388 25.2761 21.3471 24.2154 20.0743L21.1425 22.635ZM19.2795 20.3994L21.1425 22.635L24.2154 20.0743L22.3523 17.8386L19.2795 20.3994Z" fill="#3250D2" mask="url(#path-3-inside-1_710_24803)"/>
</svg>
