<svg width="24" height="24" viewBox="0 0 24 24" fill="none" xmlns="http://www.w3.org/2000/svg">
<rect width="24" height="24" fill="white"/>
<path d="M12 4.7274L12.0001 3.7274H11.9999L12 4.7274ZM8.12122 6.92672L9.03624 7.33014L9.03624 7.33014L8.12122 6.92672ZM15.8788 6.92672L14.9638 7.33014V7.33014L15.8788 6.92672ZM16.2971 8.40703L15.3075 8.55088C15.3801 9.05058 15.8139 9.41773 16.3187 9.40679L16.2971 8.40703ZM16.0058 11.506L15.7959 10.5282C15.4523 10.602 15.1726 10.8508 15.0592 11.1835L16.0058 11.506ZM14.4243 13.9649L13.7523 13.2243C13.6706 13.2985 13.6017 13.3856 13.5484 13.4823L14.4243 13.9649ZM15.8788 16.6042L15.5893 17.5614L15.5893 17.5614L15.8788 16.6042ZM16.6659 16.8213L16.9185 15.8537L16.6659 16.8213ZM7.33415 16.8213L7.08152 15.8537H7.08152L7.33415 16.8213ZM8.12122 16.6042L8.41069 17.5614H8.4107L8.12122 16.6042ZM9.57577 13.9649L10.4516 13.4823C10.3983 13.3856 10.3294 13.2985 10.2477 13.2243L9.57577 13.9649ZM7.99426 11.506L8.94083 11.1835C8.82747 10.8508 8.54776 10.602 8.2041 10.5282L7.99426 11.506ZM7.70295 8.40702L7.6813 9.40679C8.18613 9.41772 8.6199 9.05058 8.69255 8.55088L7.70295 8.40702ZM21 12C21 16.9706 16.9706 21 12 21V23C18.0751 23 23 18.0751 23 12H21ZM12 3C16.9706 3 21 7.02944 21 12H23C23 5.92487 18.0751 1 12 1V3ZM3 12C3 7.02944 7.02944 3 12 3V1C5.92487 1 1 5.92487 1 12H3ZM12 21C7.02944 21 3 16.9706 3 12H1C1 18.0751 5.92487 23 12 23V21ZM11.9999 3.7274C11.3937 3.72746 10.4788 3.85967 9.58596 4.2516C8.68573 4.64676 7.72557 5.3453 7.20621 6.5233L9.03624 7.33014C9.29263 6.74861 9.78702 6.34754 10.3898 6.08294C11 5.81512 11.6366 5.72743 12.0001 5.7274L11.9999 3.7274ZM16.7938 6.5233C16.2744 5.3453 15.3143 4.64676 14.4141 4.2516C13.5212 3.85967 12.6063 3.72746 12.0001 3.7274L11.9999 5.7274C12.3634 5.72743 13.0001 5.81512 13.6102 6.08294C14.213 6.34754 14.7074 6.74861 14.9638 7.33014L16.7938 6.5233ZM17.2867 8.26317C17.1993 7.66227 17.0366 7.07395 16.7938 6.5233L14.9638 7.33014C15.1279 7.70245 15.244 8.11454 15.3075 8.55088L17.2867 8.26317ZM18.4546 9.7274C18.4546 8.17511 17.2644 7.38584 16.2754 7.40726L16.3187 9.40679C16.302 9.40716 16.3067 9.40445 16.3252 9.41144C16.3415 9.41762 16.3589 9.42782 16.3741 9.44203C16.3878 9.45469 16.4045 9.47478 16.4195 9.51025C16.4345 9.54583 16.4546 9.61344 16.4546 9.7274H18.4546ZM16.2156 12.4837C17.3866 12.2324 18.4546 11.2003 18.4546 9.7274H16.4546C16.4546 10.139 16.1661 10.4488 15.7959 10.5282L16.2156 12.4837ZM15.0962 14.7055C15.9742 13.9089 16.5878 12.8984 16.9523 11.8285L15.0592 11.1835C14.7901 11.9733 14.3493 12.6827 13.7523 13.2243L15.0962 14.7055ZM16.1683 15.647C15.1793 15.348 15.1907 14.6461 15.3001 14.4476L13.5484 13.4823C12.6882 15.0433 13.6692 16.9807 15.5893 17.5614L16.1683 15.647ZM16.9185 15.8537C16.67 15.7888 16.4264 15.7251 16.1683 15.647L15.5893 17.5614C15.8893 17.6521 16.1682 17.7248 16.4132 17.7888L16.9185 15.8537ZM20.0786 17.7716C19.6019 17.123 19.094 16.6995 18.5233 16.4054C17.9839 16.1275 17.4171 15.9839 16.9185 15.8537L16.4132 17.7888C16.9542 17.9301 17.299 18.0245 17.6072 18.1833C17.8841 18.326 18.1599 18.5381 18.4669 18.9559L20.0786 17.7716ZM7.08152 15.8537C6.5829 15.9839 6.01612 16.1275 5.4767 16.4054C4.90597 16.6995 4.3981 17.123 3.92145 17.7716L5.53312 18.9559C5.84012 18.5381 6.1159 18.326 6.39281 18.1833C6.70101 18.0245 7.04584 17.9301 7.58677 17.7888L7.08152 15.8537ZM7.83175 15.647C7.57361 15.7251 7.33006 15.7888 7.08152 15.8537L7.58677 17.7888C7.83181 17.7248 8.11073 17.6521 8.41069 17.5614L7.83175 15.647ZM8.69996 14.4476C8.80937 14.6461 8.82068 15.348 7.83175 15.647L8.4107 17.5614C10.3309 16.9807 11.3119 15.0433 10.4516 13.4823L8.69996 14.4476ZM7.0477 11.8285C7.41222 12.8984 8.02581 13.9089 8.90384 14.7055L10.2477 13.2243C9.65069 12.6827 9.20994 11.9733 8.94083 11.1835L7.0477 11.8285ZM5.54547 9.7274C5.54547 11.2003 6.6134 12.2324 7.78443 12.4837L8.2041 10.5282C7.83389 10.4488 7.54547 10.139 7.54547 9.7274H5.54547ZM7.7246 7.40726C6.73562 7.38584 5.54547 8.17512 5.54547 9.7274H7.54547C7.54547 9.61345 7.56555 9.54582 7.58056 9.51025C7.59551 9.47478 7.61226 9.45468 7.62589 9.44202C7.64117 9.42781 7.65855 9.41762 7.67487 9.41143C7.6933 9.40445 7.698 9.40715 7.6813 9.40679L7.7246 7.40726ZM7.20621 6.5233C6.96344 7.07395 6.8007 7.66227 6.71335 8.26316L8.69255 8.55088C8.75598 8.11453 8.87209 7.70244 9.03624 7.33014L7.20621 6.5233Z" fill="#3250D2"/>
</svg>
