<svg width="24" height="24" viewBox="0 0 24 24" fill="none" xmlns="http://www.w3.org/2000/svg">
<g clip-path="url(#clip0_710_25192)">
<rect width="24" height="24" fill="white"/>
<mask id="path-1-inside-1_710_25192" fill="white">
<path fill-rule="evenodd" clip-rule="evenodd" d="M20.5929 18.8664C21.3678 17.9295 21.8333 16.7274 21.8333 15.4167C21.8333 12.4251 19.4082 10 16.4167 10C13.4251 10 11 12.4251 11 15.4167C11 18.4082 13.4251 20.8333 16.4167 20.8333C17.3753 20.8333 18.2758 20.5843 19.057 20.1474L21.0652 22.5572C21.4188 22.9815 22.0493 23.0388 22.4736 22.6852C22.8979 22.3316 22.9552 21.7011 22.6016 21.2768L20.5929 18.8664Z"/>
</mask>
<path d="M20.5929 18.8664L19.0517 17.5918L17.9936 18.8713L19.0565 20.1468L20.5929 18.8664ZM19.057 20.1474L20.5935 18.867L19.5302 17.5911L18.0807 18.4018L19.057 20.1474ZM21.0652 22.5572L22.6016 21.2768L22.6016 21.2768L21.0652 22.5572ZM22.4736 22.6852L23.754 24.2217L23.754 24.2217L22.4736 22.6852ZM22.6016 21.2768L24.1381 19.9964L22.6016 21.2768ZM19.8333 15.4167C19.8333 16.2452 19.5409 17.0002 19.0517 17.5918L22.1342 20.1409C23.1946 18.8587 23.8333 17.2096 23.8333 15.4167H19.8333ZM16.4167 12C18.3036 12 19.8333 13.5297 19.8333 15.4167H23.8333C23.8333 11.3206 20.5128 8 16.4167 8V12ZM13 15.4167C13 13.5297 14.5297 12 16.4167 12V8C12.3206 8 9 11.3206 9 15.4167H13ZM16.4167 18.8333C14.5297 18.8333 13 17.3036 13 15.4167H9C9 19.5128 12.3206 22.8333 16.4167 22.8333V18.8333ZM18.0807 18.4018C17.5902 18.6762 17.0248 18.8333 16.4167 18.8333V22.8333C17.7259 22.8333 18.9615 22.4924 20.0333 21.8929L18.0807 18.4018ZM22.6016 21.2768L20.5935 18.867L17.5206 21.4277L19.5288 23.8375L22.6016 21.2768ZM21.1932 21.1488C21.6175 20.7952 22.2481 20.8525 22.6016 21.2768L19.5287 23.8375C20.5894 25.1104 22.4811 25.2823 23.754 24.2217L21.1932 21.1488ZM21.0652 22.5572C20.7116 22.1329 20.769 21.5023 21.1932 21.1488L23.754 24.2217C25.0268 23.161 25.1988 21.2693 24.1381 19.9964L21.0652 22.5572ZM19.0565 20.1468L21.0652 22.5572L24.1381 19.9964L22.1294 17.586L19.0565 20.1468Z" fill="#3250D2" mask="url(#path-1-inside-1_710_25192)"/>
<path d="M16 7.40816L10.913 3L3 9.85714V19H9.78261" stroke="#3250D2" stroke-width="2" stroke-linecap="round" stroke-linejoin="round"/>
</g>
<defs>
<clipPath id="clip0_710_25192">
<rect width="24" height="24" fill="white"/>
</clipPath>
</defs>
</svg>
